<svg width="400" height="400" viewBox="0 0 400 400" fill="none" xmlns="http://www.w3.org/2000/svg">
<rect width="400" height="400" fill="url(#paint0_linear_562_2999)"/>
<path d="M225.622 159.96C204.648 143.741 177.165 142.144 155.418 162.756C133.671 183.368 140.99 205.578 140.99 205.578" stroke="#9832E1" stroke-width="14.0073" stroke-linecap="round"/>
<path d="M237.273 158.28C224.358 146.511 206.628 129.43 173.239 139.584C139.851 149.739 123.605 182.667 130.953 208.882" stroke="#486BF3" stroke-width="14" stroke-linecap="round" stroke-linejoin="round"/>
<path d="M248.925 156.599C228.694 126.106 187.321 116.319 153.35 137.68C119.379 159.041 116.385 186.52 120.104 210.152" stroke="#74D248" stroke-width="14.0028" stroke-linecap="round"/>
<path d="M260.558 155.505C236.26 116.714 185.557 105.24 147.311 129.878C109.065 154.516 103.939 190.242 109.661 212.235" stroke="#EDF000" stroke-width="14.0056" stroke-linecap="round"/>
<path d="M271.439 156.911C251.962 114.591 197.832 95.983 152.849 117.491C107.866 139 90.2183 178.069 101.248 219.202" stroke="#F18431" stroke-width="14" stroke-linecap="round"/>
<path d="M282.314 161.757C265.282 109.364 212.07 87.9634 160.412 105.231C108.753 122.498 75.3921 171.739 92.4242 224.132" stroke="#DD3930" stroke-width="13" stroke-linecap="round"/>
<g filter="url(#filter0_d_562_2999)">
<path d="M247.064 324.865C245.51 324.998 243.941 325.069 242.356 325.077L131.783 325.548C124.172 325.609 116.624 324.146 109.571 321.242C102.519 318.338 96.1008 314.05 90.6857 308.625C85.2705 303.2 80.9646 296.745 78.015 289.628C75.0654 282.512 73.5301 274.875 73.4972 267.156C73.4643 259.437 74.9345 251.788 77.8233 244.647C80.7122 237.505 84.9629 231.013 90.3316 225.542C95.7003 220.071 102.081 215.729 109.109 212.765C116.136 209.801 123.672 208.274 131.283 208.27L172.51 208.094C185.749 178.213 216.444 157.207 252.282 157.054C300.384 156.849 339.54 194.286 339.738 240.672C339.935 287.057 301.1 324.826 252.998 325.031C251.004 325.04 249.026 324.985 247.064 324.865Z" fill="url(#paint1_linear_562_2999)"/>
<path d="M252.994 324.216C258.852 324.191 264.704 323.597 270.387 322.451C275.924 321.333 281.369 319.678 286.569 317.531C291.674 315.424 296.596 312.821 301.197 309.796C305.753 306.799 310.035 303.363 313.924 299.581C317.812 295.799 321.339 291.642 324.406 287.224C327.502 282.765 330.157 278.001 332.297 273.064C334.476 268.038 336.144 262.78 337.254 257.437C338.393 251.955 338.958 246.316 338.934 240.675C338.91 235.034 338.297 229.399 337.111 223.927C335.956 218.595 334.243 213.351 332.021 208.343C329.839 203.425 327.143 198.684 324.009 194.251C320.905 189.86 317.343 185.733 313.423 181.985C309.502 178.236 305.191 174.836 300.609 171.879C295.982 168.893 291.039 166.332 285.916 164.268C280.697 162.166 275.239 160.557 269.692 159.487C264 158.389 258.143 157.845 252.285 157.87C235.103 157.943 218.529 162.867 204.356 172.111C197.524 176.566 191.391 181.935 186.126 188.068C180.828 194.24 176.494 201.09 173.243 208.428L173.031 208.907L172.513 208.909L131.286 209.085C123.589 209.118 116.129 210.678 109.113 213.723C105.741 215.187 102.49 216.994 99.451 219.096C96.4406 221.177 93.6115 223.565 91.0424 226.193C88.4733 228.821 86.143 231.71 84.1162 234.781C82.0702 237.881 80.3157 241.193 78.9014 244.625C75.9589 251.766 74.4838 259.345 74.5171 267.152C74.5503 274.958 76.09 282.524 79.0933 289.64C80.5368 293.06 82.3194 296.357 84.3918 299.44C86.4446 302.493 88.7995 305.362 91.3909 307.968C93.9823 310.574 96.8317 312.938 99.8597 314.994C102.917 317.069 106.183 318.849 109.567 320.283C116.609 323.269 124.082 324.765 131.779 324.733L242.353 324.261C243.899 324.255 245.461 324.185 246.997 324.053L247.054 324.048L247.112 324.051C249.058 324.169 251.037 324.224 252.994 324.216ZM252.998 325.032C251.004 325.04 249.025 324.984 247.065 324.865C245.513 324.998 243.941 325.07 242.356 325.077L131.783 325.548C99.8499 325.684 73.8511 299.541 73.713 267.155C73.575 234.77 99.3501 208.406 131.283 208.27L172.51 208.094C185.749 178.209 216.442 157.207 252.282 157.054C300.385 156.849 339.54 194.286 339.738 240.671C339.936 287.057 301.101 324.826 252.998 325.032Z" fill="white"/>
</g>
<defs>
<filter id="filter0_d_562_2999" x="53.4966" y="129.053" width="326.242" height="228.497" filterUnits="userSpaceOnUse" color-interpolation-filters="sRGB">
<feFlood flood-opacity="0" result="BackgroundImageFix"/>
<feColorMatrix in="SourceAlpha" type="matrix" values="0 0 0 0 0 0 0 0 0 0 0 0 0 0 0 0 0 0 127 0" result="hardAlpha"/>
<feOffset dx="10" dy="2"/>
<feGaussianBlur stdDeviation="15"/>
<feColorMatrix type="matrix" values="0 0 0 0 0.258824 0 0 0 0 0.627451 0 0 0 0 0.941176 0 0 0 0.596 0"/>
<feBlend mode="normal" in2="BackgroundImageFix" result="effect1_dropShadow_562_2999"/>
<feBlend mode="normal" in="SourceGraphic" in2="effect1_dropShadow_562_2999" result="shape"/>
</filter>
<linearGradient id="paint0_linear_562_2999" x1="200" y1="0" x2="200" y2="400" gradientUnits="userSpaceOnUse">
<stop stop-color="#ACEFEB"/>
<stop offset="0.58" stop-color="#9896FB"/>
</linearGradient>
<linearGradient id="paint1_linear_562_2999" x1="180.993" y1="178.524" x2="236.105" y2="333.737" gradientUnits="userSpaceOnUse">
<stop stop-color="white"/>
<stop offset="0.66" stop-color="#F7F7F7" stop-opacity="0.204"/>
</linearGradient>
</defs>
</svg>
