<svg width="327" height="291" viewBox="0 0 327 291" fill="none" xmlns="http://www.w3.org/2000/svg">
<path d="M172.622 92.9601C151.648 76.7407 124.165 75.1445 102.418 95.7564C80.6709 116.368 87.9902 138.578 87.9902 138.578" stroke="#9832E1" stroke-width="14.0073" stroke-linecap="round"/>
<path d="M184.273 91.2796C171.358 79.5108 153.628 62.4297 120.239 72.5843C86.8511 82.7388 70.605 115.667 77.9531 141.882" stroke="#486BF3" stroke-width="14" stroke-linecap="round" stroke-linejoin="round"/>
<path d="M195.925 89.5992C175.694 59.1065 134.321 49.3186 100.35 70.6796C66.3788 92.0406 63.3853 119.52 67.1042 143.152" stroke="#74D248" stroke-width="14.0028" stroke-linecap="round"/>
<path d="M207.558 88.5049C183.26 49.7138 132.557 38.2403 94.3113 62.8782C56.0651 87.5162 50.9388 123.242 56.6609 145.235" stroke="#EDF000" stroke-width="14.0056" stroke-linecap="round"/>
<path d="M218.439 89.911C198.962 47.5912 144.832 28.983 99.849 50.4914C54.8657 71.9998 37.2183 111.069 48.2481 152.202" stroke="#F18431" stroke-width="14" stroke-linecap="round"/>
<path d="M229.314 94.757C212.282 42.3645 159.07 20.9634 107.412 38.2306C55.7535 55.4977 22.3921 104.739 39.4242 157.132" stroke="#DD3930" stroke-width="13" stroke-linecap="round"/>
<g filter="url(#filter0_d_911_1538)">
<path d="M194.064 257.865C192.51 257.998 190.941 258.069 189.356 258.077L78.7827 258.548C71.1717 258.609 63.6235 257.146 56.5711 254.242C49.5187 251.338 43.1008 247.05 37.6857 241.625C32.2705 236.2 27.9646 229.745 25.015 222.628C22.0654 215.512 20.5301 207.875 20.4972 200.156C20.4643 192.437 21.9345 184.788 24.8233 177.647C27.7122 170.505 31.9628 164.013 37.3316 158.542C42.7003 153.071 49.0814 148.729 56.1088 145.765C63.1362 142.801 70.6717 141.274 78.2829 141.27L119.51 141.094C132.749 111.213 163.444 90.2072 199.282 90.0544C247.384 89.8494 286.54 127.286 286.738 173.672C286.935 220.057 248.1 257.826 199.998 258.031C198.004 258.04 196.026 257.985 194.064 257.865Z" fill="url(#paint0_linear_911_1538)"/>
<path d="M199.994 257.216C205.852 257.191 211.704 256.597 217.387 255.451C222.924 254.333 228.369 252.678 233.569 250.531C238.674 248.424 243.596 245.821 248.197 242.796C252.753 239.799 257.035 236.363 260.924 232.581C264.812 228.799 268.338 224.642 271.406 220.224C274.502 215.765 277.156 211.001 279.297 206.064C281.476 201.038 283.144 195.78 284.254 190.437C285.393 184.955 285.958 179.316 285.934 173.675C285.91 168.034 285.297 162.399 284.111 156.927C282.956 151.595 281.243 146.351 279.021 141.343C276.839 136.425 274.143 131.684 271.009 127.251C267.905 122.86 264.343 118.733 260.423 114.985C256.502 111.236 252.191 107.836 247.609 104.879C242.982 101.893 238.039 99.332 232.916 97.268C227.697 95.1656 222.239 93.557 216.692 92.487C211 91.3889 205.143 90.8448 199.285 90.8698C182.103 90.943 165.529 95.8674 151.356 105.111C144.524 109.566 138.391 114.935 133.126 121.068C127.828 127.24 123.494 134.09 120.243 141.428L120.031 141.907L119.513 141.909L78.2863 142.085C70.5889 142.118 63.1287 143.678 56.1129 146.723C52.7409 148.187 49.4901 149.994 46.451 152.096C43.4406 154.177 40.6115 156.565 38.0424 159.193C35.4733 161.821 33.143 164.71 31.1162 167.781C29.0702 170.881 27.3157 174.193 25.9014 177.625C22.9589 184.766 21.4838 192.345 21.5171 200.152C21.5503 207.958 23.09 215.524 26.0933 222.64C27.5368 226.06 29.3194 229.357 31.3918 232.44C33.4446 235.493 35.7995 238.362 38.3909 240.968C40.9823 243.574 43.8317 245.938 46.8597 247.994C49.9166 250.069 53.1827 251.849 56.567 253.283C63.6086 256.269 71.0818 257.765 78.7792 257.733L189.353 257.261C190.899 257.255 192.461 257.185 193.997 257.053L194.054 257.048L194.112 257.051C196.058 257.169 198.037 257.224 199.994 257.216ZM199.998 258.032C198.004 258.04 196.025 257.984 194.065 257.865C192.513 257.998 190.941 258.07 189.356 258.077L78.7827 258.548C46.8499 258.684 20.8511 232.541 20.713 200.155C20.575 167.77 46.3501 141.406 78.2829 141.27L119.51 141.094C132.749 111.209 163.442 90.2071 199.282 90.0544C247.385 89.8494 286.54 127.286 286.738 173.671C286.936 220.057 248.101 257.826 199.998 258.032Z" fill="white"/>
</g>
<defs>
<filter id="filter0_d_911_1538" x="0.496582" y="62.0535" width="326.242" height="228.497" filterUnits="userSpaceOnUse" color-interpolation-filters="sRGB">
<feFlood flood-opacity="0" result="BackgroundImageFix"/>
<feColorMatrix in="SourceAlpha" type="matrix" values="0 0 0 0 0 0 0 0 0 0 0 0 0 0 0 0 0 0 127 0" result="hardAlpha"/>
<feOffset dx="10" dy="2"/>
<feGaussianBlur stdDeviation="15"/>
<feColorMatrix type="matrix" values="0 0 0 0 0.258824 0 0 0 0 0.627451 0 0 0 0 0.941176 0 0 0 0.596 0"/>
<feBlend mode="normal" in2="BackgroundImageFix" result="effect1_dropShadow_911_1538"/>
<feBlend mode="normal" in="SourceGraphic" in2="effect1_dropShadow_911_1538" result="shape"/>
</filter>
<linearGradient id="paint0_linear_911_1538" x1="127.993" y1="111.524" x2="183.105" y2="266.737" gradientUnits="userSpaceOnUse">
<stop stop-color="white"/>
<stop offset="0.66" stop-color="#F7F7F7" stop-opacity="0.204"/>
</linearGradient>
</defs>
</svg>
